<svg xmlns="http://www.w3.org/2000/svg" width="82" height="82" viewBox="0 0 82 82" fill="none">
<g id="Finalizado">
<rect width="82" height="82" fill="#B3B3B3"/>
<path id="Vector" d="M79.1215 0H2.87846C1.28873 0 0 1.42172 0 3.17549V78.8245C0 80.5783 1.28873 82 2.87846 82H79.1215C80.7113 82 82 80.5783 82 78.8245V3.17549C82 1.42172 80.7113 0 79.1215 0Z" fill="#F0BD04"/>
<path id="Vector_2" d="M27.3732 27.7057L23.4193 47.3875H16.17L8.63849 17.3713C7.35094 16.8521 6.48772 16.2638 6.04883 15.6064L6.52382 11.2959H17.3936L17.8686 15.6064C17.3347 16.2995 16.4873 16.8706 15.3264 17.3199L18.6685 32.6388C19.1631 34.8134 19.556 37.0147 19.8455 39.2339L19.9405 40.1174H20.5998C20.6302 38.0745 20.9282 35.6162 21.4937 32.7425L25.7307 11.6596H32.9258L37.1628 32.6388C37.6644 35.1666 38.0095 37.365 38.1983 39.2339L38.2933 40.1688H38.9526C39.0159 38.0581 39.3924 35.5826 40.0821 32.7425L43.8003 17.5274C42.4824 17.0076 41.5726 16.3673 41.071 15.6064L41.546 11.2959H51.9455L52.4158 15.6064C51.8192 16.4364 50.7679 17.1113 49.2618 17.6312L41.3541 47.3875H33.9632L30.1509 27.7581C29.7114 25.4036 29.3818 23.1011 29.162 20.8507L29.067 19.8121H28.4077C28.2829 22.2016 27.9381 24.8328 27.3732 27.7057Z" fill="white"/>
<path id="Vector_3" d="M67.6198 16.9561C66.5279 16.641 65.4035 16.4839 64.2749 16.4887C63.1127 16.4887 62.1792 16.809 61.4743 17.4497C60.7694 18.0904 60.4173 18.9903 60.4179 20.1494C60.4179 21.3099 60.6846 22.2182 61.2178 22.8742C61.7511 23.5303 62.8018 24.1028 64.3699 24.5919L68.5593 25.9418C70.8184 26.6691 72.6151 27.803 73.9496 29.3436C75.284 30.8842 75.9515 33.143 75.9521 36.1201C75.9521 39.6519 74.7988 42.439 72.4923 44.4812C70.1857 46.5234 67.3218 47.5442 63.9006 47.5435C61.9407 47.533 59.9891 47.2627 58.0876 46.7386C56.0945 46.2034 54.439 45.4506 53.1211 44.4801V43.2854C53.1211 42.6971 53.231 41.6931 53.4507 40.2734C53.6705 38.8537 53.9843 37.6939 54.3922 36.794H58.86C59.3628 37.8686 59.6611 39.3054 59.7548 41.1045C60.8556 41.6243 62.1355 41.8842 63.5947 41.8842C65.0539 41.8842 66.2543 41.5034 67.1961 40.7419C68.1378 39.981 68.6087 38.8907 68.6087 37.471C68.6185 36.9215 68.571 36.3726 68.4672 35.835C68.3728 35.4026 68.0824 34.9352 67.596 34.4328C67.1096 33.9305 66.4114 33.5235 65.5013 33.2119L60.6564 31.6545C55.7298 30.0958 53.2664 26.6338 53.2664 21.2687C53.2664 18.1183 54.3019 15.5996 56.3729 13.7125C58.4439 11.8253 61.1507 10.8821 64.4934 10.8828C67.8354 10.8828 71.1069 11.7139 74.3077 13.376V14.5708C74.3077 15.1598 74.1978 16.1638 73.9781 17.5828C73.7583 19.0018 73.4445 20.1613 73.0366 21.0612H68.5612C68.0273 20.229 67.7135 18.8607 67.6198 16.9561Z" fill="white"/>
<path id="Vector_4" d="M21.2876 71.7961L19.9576 67.2362C19.6783 66.3133 19.4602 65.1604 19.3031 63.7778L19.2252 63.085H18.8585C18.7041 64.4829 18.4416 65.8636 18.0738 67.2121L16.8445 71.8014H13.1253L9.82888 60.4587C9.07903 60.1708 8.56445 59.8246 8.28516 59.4201L8.54735 57.1973H14.6691L14.9303 59.4201C14.6168 59.8239 14.0851 60.1701 13.3353 60.4587L14.8553 67.8189H15.221C15.411 66.7995 15.6377 65.7515 15.9012 64.6749L17.6805 57.257H20.6103L22.364 64.6172L23.0176 67.821H23.3842C24.0296 64.5694 24.4656 62.3853 24.6924 61.2688L24.8491 60.4608C24.0644 60.1534 23.541 59.8072 23.2788 59.4222L23.541 57.1994H29.3492L29.6105 59.4222C29.3141 59.8645 28.7647 60.2299 27.9622 60.5184L24.6895 71.7961H21.2876Z" fill="white"/>
<path id="Vector_5" d="M35.8709 71.8574C33.8038 71.8574 32.2733 71.2513 31.2796 70.0391C30.286 68.8269 29.7898 66.9932 29.791 64.538C29.791 62.085 30.3449 60.209 31.4525 58.9102C32.5602 57.6113 34.1518 56.9619 36.2272 56.9619C38.3019 56.9619 39.8409 57.539 40.8441 58.6932C41.8473 59.8475 42.3489 61.6504 42.3489 64.1021C42.3489 66.5558 41.7862 68.4608 40.6608 69.8169C39.5353 71.173 37.9387 71.8532 35.8709 71.8574ZM33.5549 64.2959C33.5549 67.375 34.3921 68.9142 36.0666 68.9135C36.9216 68.9135 37.5549 68.5642 37.9666 67.8655C38.3783 67.1668 38.5831 66.0171 38.5812 64.4165C38.5812 61.4121 37.7263 59.91 36.0163 59.91C35.1797 59.91 34.5606 60.2419 34.1591 60.9056C33.7575 61.5693 33.5571 62.6984 33.5577 64.2928L33.5549 64.2959Z" fill="white"/>
<path id="Vector_6" d="M51.5314 60.7484C50.2059 60.7484 49.2901 61.0279 48.7841 61.5869V68.1894C50.1977 68.4779 51.1657 68.8818 51.6882 69.4009L51.4269 71.6237H43.9458L43.6836 69.4009C43.9274 69.0362 44.4072 68.7092 45.1228 68.4199V60.3963C44.5123 60.1657 44.0326 59.8388 43.6836 59.4154L43.9458 57.1925C44.7954 56.9761 45.6636 56.8602 46.5355 56.8467C47.303 56.8467 47.9395 56.8659 48.4449 56.9043V58.7226C48.8731 58.1808 49.3988 57.7432 49.9887 57.4378C50.6169 57.1017 51.1869 56.9333 51.6986 56.9326C52.2104 56.9319 52.5644 56.9812 52.7607 57.0804L52.6828 60.8323C52.3014 60.7731 51.9166 60.745 51.5314 60.7484Z" fill="white"/>
<path id="Vector_7" d="M53.7808 51.132C54.6719 50.8938 55.5847 50.7679 56.5015 50.7568C57.3388 50.7568 58.0453 50.7858 58.621 50.8438V68.4201C59.3011 68.7087 59.7806 69.0357 60.0592 69.4011L59.798 71.6239H53.7808L53.5195 69.4011C53.764 69.0364 54.2434 68.7094 54.9578 68.4201V54.3358C54.3473 54.1046 53.8679 53.7772 53.5195 53.3538L53.7808 51.132ZM63.4868 71.6239L58.8604 64.1484L61.7379 60.0213C61.4885 59.8763 61.2735 59.6688 61.1099 59.4156L61.3712 57.1927H67.1252L67.3874 59.4156C67.003 59.9542 66.2791 60.3773 65.2158 60.6847L62.704 63.8602L65.6604 68.1571C66.7414 68.4261 67.5014 68.8397 67.9403 69.3979L67.6781 71.6208L63.4868 71.6239Z" fill="white"/>
<path id="Vector_8" d="M71.6362 71.9116C70.2504 71.9116 69.5573 71.1997 69.5566 69.7757C69.556 68.3518 70.2492 67.6399 71.6362 67.6399C73.0231 67.6399 73.7166 68.3518 73.7166 69.7757C73.7166 71.1997 73.0231 71.9116 71.6362 71.9116ZM69.6089 56.904C69.6089 55.288 69.67 53.5563 69.7922 51.709H73.5067C73.6112 53.4214 73.6637 55.0375 73.6644 56.5571C73.6644 60.156 73.3765 63.2347 72.8008 65.7933H70.4506C69.8888 63.292 69.6083 60.3289 69.6089 56.904Z" fill="white"/>
</g>
</svg>